<?xml version="1.0" encoding="utf-8"?>
<!DOCTYPE svg PUBLIC "-//W3C//DTD SVG 1.1//EN" "http://www.w3.org/Graphics/SVG/1.1/DTD/svg11.dtd">
<svg version="1.1" xmlns="http://www.w3.org/2000/svg" xmlns:xlink="http://www.w3.org/1999/xlink" x="0px" y="0px" viewBox="0 0 1000 1000" enable-background="new 0 0 1000 1000" xml:space="preserve">
<g><path d="M199.2,446.1c19.9-33.3,58.5-60.4,86.1-60.4H843v-58.2c0-38.8-31.5-70.3-70.3-70.3H393.5l-24.9-87.6c-7.5-26.3-35.7-47.6-63-47.6H117.7C58.2,122,10,170.2,10,229.6v462.7c0,38.8,16.2,43.3,36.1,10L199.2,446.1z"/><path d="M940,433H342.7c-38.9,0-86.5,27-106.4,60.4L42.4,817.7C22.5,851,37.9,878,76.7,878h649.5c38.8,0,84.3-28.2,101.5-63l155-313.1C1001.6,463.8,982.4,433,940,433z"/></g>
</svg>